<svg width="613" height="613" viewBox="0 0 613 613" fill="none" xmlns="http://www.w3.org/2000/svg">
<path fill-rule="evenodd" clip-rule="evenodd" d="M385.273 92.111C439.796 92.2338 503.568 84.5687 540.661 125.568C578.012 166.851 573.217 234.52 566.433 292.347C560.419 343.616 538.67 392.049 504.914 430.295C474.837 464.373 431.044 474.857 390.27 491.945C349.436 509.058 310.609 529.785 267.168 529.933C212.641 530.12 141.171 541.034 112.629 492.895C83.3514 443.515 147.409 380.874 143.879 321.995C140.154 259.877 59.8654 203.028 92.0483 149.643C124.006 96.6317 204.728 136.31 262.67 124.942C305.079 116.621 342.394 92.0144 385.273 92.111Z" fill="url(#paint0_linear)"/>
<defs>
<linearGradient id="paint0_linear" x1="371.595" y1="65.1115" x2="241.372" y2="547.856" gradientUnits="userSpaceOnUse">
<stop stop-color="#F0544A"/>
<stop offset="1" stop-color="#3B2969"/>
</linearGradient>
</defs>
</svg>
