<svg width="400" height="250" viewBox="0 0 400 250" fill="none" xmlns="http://www.w3.org/2000/svg">
<g clip-path="url(#clip0)">
<path d="M255.611 250V218.208C255.611 218.208 269.001 240.747 255.611 250Z" fill="#F1F1F1"/>
<path d="M256.438 249.994L231.128 228.494C231.128 228.494 258.127 234.61 256.438 249.994Z" fill="#F1F1F1"/>
<path d="M400 10.1427H0.170532V185.695H400V10.1427Z" fill="#E5E5E5"/>
<path d="M388.567 25.1967H11.6038V171.666H388.567V25.1967Z" fill="white"/>
<path d="M399.829 0H0V15.717H399.829V0Z" fill="#6C63FF"/>
<path d="M12.6226 10.7425C14.3614 10.7425 15.7709 9.43827 15.7709 7.82941C15.7709 6.22056 14.3614 4.91632 12.6226 4.91632C10.8839 4.91632 9.47437 6.22056 9.47437 7.82941C9.47437 9.43827 10.8839 10.7425 12.6226 10.7425Z" fill="white"/>
<path d="M24.5725 10.7425C26.3112 10.7425 27.7208 9.43827 27.7208 7.82941C27.7208 6.22056 26.3112 4.91632 24.5725 4.91632C22.8337 4.91632 21.4242 6.22056 21.4242 7.82941C21.4242 9.43827 22.8337 10.7425 24.5725 10.7425Z" fill="white"/>
<path d="M36.5229 10.7425C38.2617 10.7425 39.6712 9.43827 39.6712 7.82941C39.6712 6.22056 38.2617 4.91632 36.5229 4.91632C34.7842 4.91632 33.3746 6.22056 33.3746 7.82941C33.3746 9.43827 34.7842 10.7425 36.5229 10.7425Z" fill="white"/>
<path d="M73.363 58.5403C72.9513 58.5403 72.5565 58.6916 72.2654 58.9609C71.9743 59.2303 71.8108 59.5956 71.8108 59.9765C71.8108 60.3574 71.9743 60.7227 72.2654 60.9921C72.5565 61.2614 72.9513 61.4127 73.363 61.4127H115.774C116.186 61.4127 116.58 61.2614 116.871 60.9921C117.163 60.7227 117.326 60.3574 117.326 59.9765C117.326 59.5956 117.163 59.2303 116.871 58.9609C116.58 58.6916 116.186 58.5403 115.774 58.5403H73.363Z" fill="#3F3D56"/>
<path d="M49.3774 78.317C48.9657 78.317 48.5709 78.4683 48.2798 78.7376C47.9887 79.007 47.8252 79.3723 47.8252 79.7532C47.8252 80.1341 47.9887 80.4994 48.2798 80.7687C48.5709 81.0381 48.9657 81.1894 49.3774 81.1894H139.76C140.171 81.1894 140.566 81.0381 140.857 80.7687C141.148 80.4994 141.312 80.1341 141.312 79.7532C141.312 79.3723 141.148 79.007 140.857 78.7376C140.566 78.4683 140.171 78.317 139.76 78.317H49.3774Z" fill="#CCCCCC"/>
<path d="M49.3774 89.7435C48.9657 89.7435 48.5709 89.8948 48.2798 90.1641C47.9887 90.4335 47.8252 90.7988 47.8252 91.1797C47.8252 91.5606 47.9887 91.9259 48.2798 92.1953C48.5709 92.4646 48.9657 92.6159 49.3774 92.6159H139.76C140.171 92.6159 140.566 92.4646 140.857 92.1953C141.148 91.9259 141.312 91.5606 141.312 91.1797C141.312 90.7988 141.148 90.4335 140.857 90.1641C140.566 89.8948 140.171 89.7435 139.76 89.7435H49.3774Z" fill="#CCCCCC"/>
<path d="M49.3774 101.17C48.9657 101.17 48.5709 101.321 48.2798 101.591C47.9887 101.86 47.8252 102.225 47.8252 102.606C47.8252 102.987 47.9887 103.352 48.2798 103.622C48.5709 103.891 48.9657 104.042 49.3774 104.042H139.76C140.171 104.042 140.566 103.891 140.857 103.622C141.148 103.352 141.312 102.987 141.312 102.606C141.312 102.225 141.148 101.86 140.857 101.591C140.566 101.321 140.171 101.17 139.76 101.17H49.3774Z" fill="#CCCCCC"/>
<path d="M49.3774 112.596C48.9657 112.596 48.5709 112.748 48.2798 113.017C47.9887 113.287 47.8252 113.652 47.8252 114.033C47.8252 114.414 47.9887 114.779 48.2798 115.048C48.5709 115.318 48.9657 115.469 49.3774 115.469H139.76C140.171 115.469 140.566 115.318 140.857 115.048C141.148 114.779 141.312 114.414 141.312 114.033C141.312 113.652 141.148 113.287 140.857 113.017C140.566 112.748 140.171 112.596 139.76 112.596H49.3774Z" fill="#CCCCCC"/>
<path d="M49.3774 124.023C48.9657 124.023 48.5709 124.174 48.2798 124.444C47.9887 124.713 47.8252 125.078 47.8252 125.459C47.8252 125.84 47.9887 126.205 48.2798 126.475C48.5709 126.744 48.9657 126.895 49.3774 126.895H139.76C140.171 126.895 140.566 126.744 140.857 126.475C141.148 126.205 141.312 125.84 141.312 125.459C141.312 125.078 141.148 124.713 140.857 124.444C140.566 124.174 140.171 124.023 139.76 124.023H49.3774Z" fill="#CCCCCC"/>
<path d="M49.3774 135.45C48.9657 135.45 48.5709 135.601 48.2798 135.87C47.9887 136.14 47.8252 136.505 47.8252 136.886C47.8252 137.267 47.9887 137.632 48.2798 137.901C48.5709 138.171 48.9657 138.322 49.3774 138.322H139.76C140.171 138.322 140.566 138.171 140.857 137.901C141.148 137.632 141.312 137.267 141.312 136.886C141.312 136.505 141.148 136.14 140.857 135.87C140.566 135.601 140.171 135.45 139.76 135.45H49.3774Z" fill="#CCCCCC"/>
<path d="M347.535 138.937H210.697C209.782 138.936 208.906 138.599 208.259 138.001C207.612 137.403 207.248 136.591 207.247 135.745V61.265C207.248 60.4187 207.612 59.6074 208.259 59.0089C208.906 58.4105 209.782 58.0739 210.697 58.073H347.535C348.45 58.0739 349.327 58.4105 349.974 59.0089C350.62 59.6074 350.984 60.4187 350.985 61.265V135.745C350.984 136.591 350.62 137.403 349.974 138.001C349.327 138.599 348.45 138.936 347.535 138.937Z" fill="#F1F1F1"/>
<path d="M365.537 155.972H228.698C227.784 155.971 226.907 155.634 226.26 155.036C225.613 154.438 225.25 153.626 225.249 152.78V78.3001C225.25 77.4538 225.613 76.6424 226.26 76.044C226.907 75.4456 227.784 75.109 228.698 75.1081H365.537C366.451 75.109 367.328 75.4456 367.975 76.044C368.622 76.6424 368.985 77.4538 368.986 78.3001V152.78C368.985 153.626 368.622 154.438 367.975 155.036C367.328 155.634 366.451 155.971 365.537 155.972Z" fill="white"/>
<path d="M365.536 157.058H228.698C227.472 157.057 226.297 156.606 225.43 155.804C224.564 155.002 224.076 153.914 224.075 152.78V78.3003C224.076 77.166 224.564 76.0786 225.43 75.2765C226.297 74.4744 227.472 74.0233 228.698 74.022H365.536C366.762 74.0233 367.938 74.4744 368.804 75.2765C369.671 76.0785 370.159 77.166 370.16 78.3003V152.78C370.159 153.914 369.671 155.002 368.804 155.804C367.938 156.606 366.762 157.057 365.536 157.058ZM228.698 76.1944C228.095 76.195 227.516 76.4171 227.09 76.8119C226.663 77.2067 226.423 77.742 226.422 78.3003V152.78C226.423 153.338 226.663 153.873 227.09 154.268C227.516 154.663 228.095 154.885 228.698 154.886H365.536C366.14 154.885 366.718 154.663 367.145 154.268C367.572 153.873 367.812 153.338 367.812 152.78V78.3003C367.812 77.7419 367.572 77.2067 367.145 76.8119C366.718 76.4171 366.14 76.195 365.536 76.1944H228.698Z" fill="#3F3D56"/>
<path d="M296.933 136.428C303.491 136.428 308.807 131.509 308.807 125.441C308.807 119.373 303.491 114.454 296.933 114.454C290.375 114.454 285.059 119.373 285.059 125.441C285.059 131.509 290.375 136.428 296.933 136.428Z" fill="#FF6583"/>
<path d="M319.839 114.871C319.14 114.185 318.3 113.635 317.368 113.254C316.436 112.873 315.431 112.668 314.413 112.651C313.394 112.634 312.382 112.806 311.436 113.156C310.489 113.506 309.629 114.028 308.904 114.69L270.394 150.324C265.461 154.909 260.311 147.896 257.02 145.067C249.107 137.826 240.56 151.404 235.241 155.292H358.993V153.835L319.839 114.871Z" fill="#6C63FF"/>
<path d="M167.296 158.064L165.214 131.364L168.954 106.344L158.332 105.68L156.236 133.318L162.161 159.309C161.656 159.955 161.38 160.729 161.368 161.525C161.357 162.322 161.612 163.102 162.099 163.76C162.585 164.417 163.279 164.919 164.086 165.198C164.893 165.476 165.773 165.517 166.606 165.315C167.439 165.114 168.184 164.678 168.739 164.07C169.295 163.461 169.634 162.708 169.709 161.915C169.785 161.121 169.593 160.325 169.161 159.636C168.73 158.947 168.078 158.398 167.296 158.064Z" fill="#9F616A"/>
<path d="M156.977 109.276L159.471 99.2885C159.949 97.3759 161.199 95.7048 162.965 94.6174C164.731 93.5301 166.88 93.109 168.971 93.4403C171.062 93.7716 172.937 94.8304 174.212 96.3995C175.486 97.9687 176.064 99.9295 175.827 101.88L174.453 113.166L156.977 109.276Z" fill="#CBCBCB"/>
<path d="M176.64 245.053H181.648L184.029 227.182L176.64 227.183L176.64 245.053Z" fill="#9F616A"/>
<path d="M175.363 243.541L185.224 243.541H185.224C186.891 243.541 188.489 244.153 189.668 245.244C190.846 246.334 191.508 247.813 191.509 249.355V249.544L175.363 249.545L175.363 243.541Z" fill="#2F2E41"/>
<path d="M201.586 244.902L206.4 243.626L203.372 225.839L196.267 227.722L201.586 244.902Z" fill="#9F616A"/>
<path d="M199.908 243.773L209.388 241.26L209.388 241.26C210.99 240.836 212.709 241.017 214.167 241.766C215.624 242.514 216.701 243.767 217.16 245.249L217.216 245.431L201.695 249.545L199.908 243.773Z" fill="#2F2E41"/>
<path d="M173.934 238.567L176.263 184.433L170.214 159.934C162.074 147.306 170.856 127.162 170.945 126.96L170.978 126.886L171.063 126.875L192.357 124.206L192.656 124.841C200.985 142.46 203.296 162.014 199.281 180.882L197.064 191.371L208.018 232.291L197.651 237.087L189.698 218.003L184.322 237.528L173.934 238.567Z" fill="#2F2E41"/>
<path d="M168.141 131.981L161.194 113.147C156.875 106.11 159.615 99.8622 162.673 95.8605C165.976 91.5394 166.174 89.116 166.218 89.0891L166.254 89.0676L175.38 88.8116L183.827 96.7537C184.359 96.5616 188.847 106.796 188.466 107.31L194.366 124.956L168.141 131.981Z" fill="#CBCBCB"/>
<path d="M224.389 135.238L201.505 118.859L183.858 99.5883L176.238 106.466L197.089 126.351L221.965 139.608C222.148 140.386 222.587 141.094 223.221 141.633C223.855 142.172 224.653 142.517 225.507 142.62C226.361 142.723 227.228 142.58 227.99 142.21C228.753 141.84 229.373 141.26 229.766 140.552C230.159 139.843 230.306 139.039 230.187 138.25C230.067 137.461 229.687 136.725 229.099 136.144C228.51 135.562 227.742 135.163 226.899 135.001C226.056 134.839 225.179 134.921 224.389 135.238V135.238Z" fill="#9F616A"/>
<path d="M174.072 113.435L167.696 105.052C166.475 103.447 165.963 101.47 166.266 99.5275C166.57 97.5847 167.664 95.8227 169.326 94.6025C170.988 93.3823 173.091 92.7964 175.205 92.9648C177.318 93.1332 179.282 94.0432 180.694 95.5082L188.863 103.984L174.072 113.435Z" fill="#CBCBCB"/>
<path d="M169.744 86.5025C175.729 86.5025 180.582 82.0126 180.582 76.474C180.582 70.9354 175.729 66.4454 169.744 66.4454C163.758 66.4454 158.905 70.9354 158.905 76.474C158.905 82.0126 163.758 86.5025 169.744 86.5025Z" fill="#9F616A"/>
<path d="M180.764 71.3863H163.554V64.445C167.331 63.0565 171.028 61.8756 173.262 64.445C175.252 64.445 177.16 65.1764 178.567 66.4781C179.973 67.7798 180.764 69.5454 180.764 71.3863Z" fill="#2F2E41"/>
<path d="M165.926 62.7806C150.158 62.3822 153.144 86.4184 153.144 86.4184C153.144 86.4184 156.119 86.7824 157.476 86.9963L159.116 86.1421L160.88 87.2126C161.69 87.2163 162.54 87.2018 163.423 87.1866L164.231 85.6459L166.034 87.159C169.317 87.1635 178.225 87.2472 178.225 87.2472C178.225 87.2472 183.593 63.227 165.926 62.7806Z" fill="#2F2E41"/>
<path d="M293.614 249.815H112.653C112.527 249.815 112.406 249.768 112.317 249.686C112.228 249.603 112.178 249.492 112.178 249.375C112.178 249.259 112.228 249.147 112.317 249.064C112.406 248.982 112.527 248.936 112.653 248.936H293.614C293.74 248.936 293.861 248.982 293.95 249.064C294.039 249.147 294.089 249.259 294.089 249.375C294.089 249.492 294.039 249.603 293.95 249.686C293.861 249.768 293.74 249.815 293.614 249.815Z" fill="#CBCBCB"/>
</g>
<defs>
<clipPath id="clip0">
<rect width="400" height="250" fill="white"/>
</clipPath>
</defs>
</svg>
