<svg width="450" height="250" viewBox="0 0 450 250" fill="none" xmlns="http://www.w3.org/2000/svg">
<g clip-path="url(#clip0)">
<path opacity="0.2" d="M65.7619 0.0285199C62.2609 -0.0654344 58.6731 0.0285167 55.3893 0.976229C46.4544 3.55793 42.2194 12.0056 43.5963 19.3055C44.9732 26.6053 50.6373 32.9656 56.5143 38.7785C62.3912 44.5914 68.759 50.339 71.9819 57.2875C73.5891 60.7556 74.3405 64.6405 72.7073 68.1045C70.188 73.4436 62.591 76.4256 55.2981 77.0465C48.0051 77.6674 40.6817 76.4583 33.3627 76.0539C30.2918 75.8864 27.134 75.866 24.2411 76.6462C21.0659 77.4958 18.4206 79.232 15.9882 81.0416C6.49738 88.1413 -1.09963 97.8267 0.129621 108.002C1.51958 119.534 13.9163 128.648 27.4945 133.538C31.9901 135.172 36.7464 136.471 40.7035 138.783C51.1282 144.881 53.4694 156.319 52.4313 166.413C51.3931 176.507 47.8574 186.614 49.8251 196.618C52.1402 208.256 62.3869 218.77 76.2083 223.681C88.5225 228.056 103.934 227.766 114.867 221.593C120.196 218.578 124.227 214.391 127.732 210.061C132.937 203.667 137.237 196.664 140.524 189.228C142.049 185.76 143.482 182.03 147.04 179.62C149.212 178.137 152.026 177.308 154.811 176.663C163.202 174.718 172.042 174.187 180.512 172.455C188.982 170.723 197.504 167.484 202.108 161.724C208.624 153.554 205.583 143.088 205.614 133.48C205.666 111.56 222.602 91.9403 228.852 70.5718C230.894 63.5906 231.654 55.8659 227.093 49.6364C223.996 45.4084 218.771 42.357 213.28 39.9999C201.201 34.8161 187.47 32.5081 173.966 30.2614C155.197 27.1404 132.406 26.736 117.859 16.638C103.899 6.94437 84.8 0.0285199 65.7619 0.0285199Z" fill="#6C63FF"/>
<path d="M248.021 250C359.571 250 450 227.227 450 199.134C450 171.041 359.571 148.268 248.021 148.268C136.471 148.268 46.0425 171.041 46.0425 199.134C46.0425 227.227 136.471 250 248.021 250Z" fill="#F5F5F5"/>
<path d="M415.764 76.3317C415.764 76.3317 400.2 90.9681 408.988 112.688C417.775 134.408 393.924 170.527 393.924 170.527C393.924 170.527 394.18 170.49 394.654 170.413C426.618 165.102 442.503 130.723 424.729 105.18C418.122 95.6863 412.697 84.5588 415.764 76.3317Z" fill="#6C63FF"/>
<path d="M415.764 76.3317C415.764 76.3317 406.976 94.2729 415.764 108.909C424.551 123.546 417.271 164.624 393.924 170.527" stroke="#535461" stroke-width="2" stroke-miterlimit="10"/>
<path d="M443.485 135.535C443.485 135.535 425.723 132.876 424.108 147.843C422.492 162.81 389.958 164.886 389.958 164.886L390.566 165.265C417.427 181.846 443.124 175.829 439.215 153.828C437.794 145.625 437.912 137.402 443.485 135.535Z" fill="#6C63FF"/>
<path opacity="0.2" d="M443.485 135.535C443.485 135.535 425.723 132.876 424.108 147.843C422.492 162.81 389.958 164.886 389.958 164.886L390.566 165.265C417.427 181.846 443.124 175.829 439.215 153.828C437.794 145.625 437.912 137.402 443.485 135.535Z" fill="#F5F5F5"/>
<path d="M443.485 135.535C443.485 135.535 429.698 138.395 430.832 150.167C431.965 161.94 410.36 176.087 389.958 164.873" stroke="#535461" stroke-width="2" stroke-miterlimit="10"/>
<path d="M402.381 171.536H374.477C375.119 170.321 375.453 168.983 375.45 167.627V48.1168C375.45 45.7865 374.466 43.5515 372.714 41.9037C370.962 40.2558 368.585 39.3301 366.107 39.3301H150.081C148.854 39.3295 147.638 39.5564 146.504 39.9978C145.37 40.4391 144.34 41.0862 143.472 41.9022C142.604 42.7182 141.915 43.687 141.445 44.7534C140.975 45.8197 140.734 46.9626 140.734 48.1168V167.631C140.731 168.987 141.064 170.325 141.707 171.54H112.817C112.162 171.54 111.533 171.785 111.069 172.221C110.606 172.657 110.346 173.248 110.346 173.864V175.739C110.349 179.185 111.807 182.488 114.398 184.923C116.99 187.358 120.504 188.725 124.167 188.725H391.031C394.697 188.725 398.212 187.356 400.804 184.918C403.396 182.481 404.852 179.175 404.852 175.727V173.852C404.85 173.237 404.589 172.648 404.125 172.214C403.662 171.78 403.035 171.536 402.381 171.536ZM230.421 178.971L228.041 176.417H287.427L284.777 178.975L230.421 178.971Z" fill="url(#paint0_linear)"/>
<path d="M362.68 41.0212H153.491C147.911 41.0212 143.388 45.2753 143.388 50.5229V165.502C143.388 170.75 147.911 175.004 153.491 175.004H362.68C368.26 175.004 372.783 170.75 372.783 165.502V50.5229C372.783 45.2753 368.26 41.0212 362.68 41.0212Z" fill="#535461"/>
<path d="M367.467 60.5515H148.213V170.008H367.467V60.5515Z" fill="white"/>
<path d="M257.842 52.8309C258.91 52.8309 259.775 52.017 259.775 51.0131C259.775 50.0091 258.91 49.1953 257.842 49.1953C256.775 49.1953 255.909 50.0091 255.909 51.0131C255.909 52.017 256.775 52.8309 257.842 52.8309Z" fill="white"/>
<path d="M291.696 170.233L284.16 177.5H231.038L224.231 170.233H116.101C115.46 170.233 114.846 170.472 114.393 170.898C113.94 171.324 113.686 171.902 113.686 172.504V174.334C113.686 177.704 115.109 180.935 117.642 183.317C120.176 185.7 123.612 187.038 127.194 187.038H388.008C391.59 187.038 395.026 185.7 397.56 183.317C400.093 180.935 401.516 177.704 401.516 174.334V172.504C401.516 171.902 401.262 171.324 400.809 170.898C400.356 170.472 399.742 170.233 399.101 170.233H291.696Z" fill="#535461"/>
<path d="M216.491 64.3995H124.002C121.755 64.3973 119.599 65.2344 118.009 66.7266C116.418 68.2188 115.522 70.244 115.519 72.357V192.864C115.522 194.977 116.418 197.002 118.009 198.494C119.599 199.986 121.755 200.823 124.002 200.821H216.491C218.738 200.823 220.893 199.986 222.484 198.494C224.075 197.002 224.97 194.977 224.974 192.864V72.357C224.97 70.244 224.075 68.2188 222.484 66.7266C220.893 65.2344 218.738 64.3973 216.491 64.3995Z" fill="url(#paint1_linear)"/>
<path d="M214.984 66.0335H125.505C120.707 66.0335 116.818 69.6913 116.818 74.2034V191.442C116.818 195.954 120.707 199.612 125.505 199.612H214.984C219.781 199.612 223.671 195.954 223.671 191.442V74.2034C223.671 69.6913 219.781 66.0335 214.984 66.0335Z" fill="#535461"/>
<path d="M218.241 78.6683H122.247V186.977H218.241V78.6683Z" fill="white"/>
<path d="M169.81 73.3864C170.53 73.3864 171.113 72.8378 171.113 72.1609C171.113 71.4841 170.53 70.9355 169.81 70.9355C169.09 70.9355 168.507 71.4841 168.507 72.1609C168.507 72.8378 169.09 73.3864 169.81 73.3864Z" fill="white"/>
<path d="M169.81 196.752C171.969 196.752 173.719 195.106 173.719 193.076C173.719 191.045 171.969 189.399 169.81 189.399C167.651 189.399 165.901 191.045 165.901 193.076C165.901 195.106 167.651 196.752 169.81 196.752Z" fill="white"/>
<path d="M145.994 105.249H98.5048C97.8882 105.248 97.2774 105.361 96.7073 105.582C96.1371 105.803 95.6189 106.127 95.1821 106.537C94.7452 106.946 94.3984 107.432 94.1614 107.968C93.9244 108.503 93.8018 109.077 93.8007 109.657V207.459C93.8018 208.039 93.9244 208.613 94.1614 209.148C94.3984 209.684 94.7452 210.17 95.1821 210.579C95.6189 210.988 96.1371 211.313 96.7073 211.534C97.2774 211.755 97.8882 211.868 98.5048 211.867H145.994C146.61 211.868 147.221 211.755 147.791 211.534C148.361 211.313 148.88 210.988 149.316 210.579C149.753 210.17 150.1 209.684 150.337 209.148C150.574 208.613 150.697 208.039 150.698 207.459V109.657C150.697 109.077 150.574 108.503 150.337 107.968C150.1 107.432 149.753 106.946 149.316 106.537C148.88 106.127 148.361 105.803 147.791 105.582C147.221 105.361 146.61 105.248 145.994 105.249Z" fill="url(#paint2_linear)"/>
<path d="M145.486 106.066H99.0087C96.3699 106.066 94.2307 108.078 94.2307 110.56V206.965C94.2307 209.447 96.3699 211.458 99.0087 211.458H145.486C148.124 211.458 150.264 209.447 150.264 206.965V110.56C150.264 108.078 148.124 106.066 145.486 106.066Z" fill="#535461"/>
<path d="M146.137 115.87H98.3572V201.654H146.137V115.87Z" fill="white"/>
<path d="M116.6 111.377C116.84 111.377 117.035 111.194 117.035 110.968C117.035 110.743 116.84 110.56 116.6 110.56C116.36 110.56 116.166 110.743 116.166 110.968C116.166 111.194 116.36 111.377 116.6 111.377Z" fill="white"/>
<path d="M127.894 110.56H119.207C118.967 110.56 118.772 110.743 118.772 110.968C118.772 111.194 118.967 111.377 119.207 111.377H127.894C128.134 111.377 128.328 111.194 128.328 110.968C128.328 110.743 128.134 110.56 127.894 110.56Z" fill="white"/>
<path d="M122.03 208.599C123.709 208.599 125.07 207.319 125.07 205.739C125.07 204.16 123.709 202.88 122.03 202.88C120.351 202.88 118.989 204.16 118.989 205.739C118.989 207.319 120.351 208.599 122.03 208.599Z" fill="white"/>
<path d="M88.4927 219.056C88.4927 219.056 82.7331 200.674 89.5743 187.136C92.4865 181.478 93.3675 175.083 92.0849 168.913C91.4508 165.991 90.5334 163.129 89.3441 160.364" stroke="#535461" stroke-width="2" stroke-miterlimit="10"/>
<path d="M93.5835 151.81C93.5835 154.065 89.2399 160.596 89.2399 160.596C89.2399 160.596 84.8962 154.06 84.8962 151.81C84.8962 150.726 85.3539 149.687 86.1685 148.921C86.983 148.155 88.0879 147.725 89.2399 147.725C90.3919 147.725 91.4967 148.155 92.3113 148.921C93.1259 149.687 93.5835 150.726 93.5835 151.81Z" fill="#6C63FF"/>
<path d="M100.772 164.293C99.4692 166.185 92.0503 169.453 92.0503 169.453C92.0503 169.453 92.1849 161.748 93.488 159.857C93.7844 159.38 94.1804 158.965 94.6521 158.637C95.1238 158.308 95.6615 158.073 96.2326 157.945C96.8037 157.817 97.3965 157.8 97.975 157.894C98.5535 157.987 99.1058 158.19 99.5986 158.49C100.091 158.791 100.514 159.181 100.842 159.64C101.169 160.098 101.395 160.613 101.505 161.156C101.614 161.698 101.606 162.256 101.48 162.795C101.354 163.334 101.113 163.844 100.772 164.293Z" fill="#6C63FF"/>
<path d="M100.442 185.621C98.3006 186.634 90.1433 185.935 90.1433 185.935C90.1433 185.935 94.3957 179.35 96.5328 178.337C97.5532 177.904 98.7123 177.858 99.7682 178.208C100.824 178.559 101.695 179.28 102.199 180.22C102.704 181.16 102.802 182.247 102.475 183.255C102.148 184.262 101.419 185.111 100.442 185.625V185.621Z" fill="#6C63FF"/>
<path d="M96.3417 201.712C94.4131 203.051 86.2471 203.656 86.2471 203.656C86.2471 203.656 89.2529 196.491 91.1814 195.151C92.1094 194.569 93.2399 194.345 94.3388 194.525C95.4377 194.705 96.4207 195.277 97.0841 196.12C97.7475 196.963 98.0405 198.014 97.9022 199.055C97.764 200.096 97.2052 201.047 96.3417 201.712Z" fill="#6C63FF"/>
<path d="M82.9241 169.89C84.6616 171.458 92.6495 173.088 92.6495 173.088C92.6495 173.088 90.6906 165.609 88.9705 164.04C88.5687 163.637 88.0841 163.314 87.546 163.092C87.0079 162.87 86.4275 162.753 85.8399 162.748C85.2523 162.743 84.6698 162.85 84.1275 163.063C83.5853 163.276 83.0946 163.59 82.6851 163.987C82.2757 164.383 81.956 164.854 81.7455 165.37C81.535 165.885 81.438 166.436 81.4603 166.988C81.4826 167.541 81.6239 168.083 81.8755 168.582C82.1271 169.082 82.4839 169.528 82.9241 169.894V169.89Z" fill="#6C63FF"/>
<path d="M78.3809 188.762C80.5223 189.775 88.6796 189.077 88.6796 189.077C88.6796 189.077 84.4272 182.492 82.2901 181.479C81.7786 181.21 81.2145 181.041 80.6318 180.982C80.049 180.923 79.4597 180.976 78.8992 181.137C78.3388 181.298 77.8188 181.565 77.3706 181.92C76.9224 182.275 76.5552 182.712 76.2912 183.204C76.0273 183.696 75.8719 184.233 75.8345 184.783C75.7972 185.333 75.8785 185.885 76.0738 186.404C76.269 186.924 76.574 187.401 76.9705 187.807C77.367 188.213 77.8468 188.539 78.3809 188.766V188.762Z" fill="#6C63FF"/>
<path d="M76.6434 207.676C78.572 209.016 86.738 209.62 86.738 209.62C86.738 209.62 83.7322 202.455 81.8036 201.115C80.8757 200.533 79.7451 200.309 78.6462 200.489C77.5473 200.67 76.5643 201.241 75.9009 202.084C75.2375 202.927 74.9446 203.978 75.0828 205.019C75.221 206.06 75.7798 207.012 76.6434 207.676Z" fill="#6C63FF"/>
<path d="M432.191 160.58C427.383 155.094 421.558 148.791 422.374 141.491C423.035 135.58 421.454 130.114 421.766 124.183C422.201 115.756 420.402 109.159 413.948 103.758C410.178 100.601 403.875 98.1209 401.999 98.7541C398.28 100.004 394.223 99.5262 390.397 100.388C387.491 101.025 385.558 102.022 384.359 103.248C381.948 105.29 381.909 108.15 383.008 111.193C382.049 112.845 381.47 114.668 381.309 116.544C381.148 118.42 381.408 120.307 382.073 122.082C382.738 123.857 383.792 125.481 385.168 126.848C386.544 128.215 388.21 129.294 390.058 130.016C387.378 131.07 385.063 133.497 384.159 138.423C383.531 141.806 382.582 145.13 381.323 148.354C380.757 148.603 380.177 148.822 379.585 149.011C379.716 149.06 379.85 149.093 379.981 149.138C379.698 149.24 379.42 149.342 379.112 149.432C379.626 149.621 380.156 149.766 380.697 149.865C377.222 158.121 372.879 163.235 372.879 163.235C372.879 163.235 364.778 164.918 361.629 161.973C361.629 161.973 362.141 162.537 362.836 163.382C359.757 162.181 354.701 160.221 350.379 158.607C347.243 157.435 346.439 158.607 346.47 160.241C345.704 160.331 344.966 160.565 344.298 160.927C343.371 160.367 342.4 159.875 341.392 159.457C339.594 159.048 333.743 156.091 327.892 166.185C324.486 172.055 315.756 182.77 309.045 190.694C295.992 196.34 279 203.489 272.684 205.286H268.636C268.106 204.469 267.737 203.954 267.737 203.954L267.424 204.15L267.29 203.954C267.29 203.954 259.341 209.13 251.27 209.171C250.122 209.156 248.98 209.019 247.865 208.762C244.155 207.884 241.541 207.492 239.673 207.537C237.462 207.5 236.198 207.994 235.433 208.926C235.331 209.048 235.236 209.176 235.151 209.31C235.065 209.442 234.987 209.578 234.916 209.718C234.847 209.865 234.777 210.02 234.717 210.18C234.692 210.322 234.701 210.467 234.745 210.605C234.788 210.743 234.865 210.87 234.969 210.976C235.077 211.119 235.194 211.256 235.32 211.385L235.546 211.614C236.563 212.602 238.413 213.913 240.715 215.376C241.38 215.784 242.083 216.234 242.818 216.679L244.212 217.496L245.458 218.227L245.958 218.517L246.514 218.836L247.509 219.404L248.099 219.739L249.216 220.364L250.119 220.866C252.482 222.177 254.836 223.448 256.96 224.575L258.446 225.408L258.589 225.482L259.545 225.984L261.195 226.846L262.329 227.435L262.859 227.708L263.428 228.002L263.541 228.06L264.531 228.566C264.735 228.598 264.944 228.589 265.143 228.538C265.343 228.487 265.528 228.396 265.687 228.272C265.973 227.128 266.673 224.677 267.424 224.489C268.176 224.301 271.429 218.954 272.346 215.376H281.128C282.858 215.237 284.577 214.988 286.271 214.632C284.004 216.152 281.758 217.108 280.012 216.699C276.32 215.837 272.823 217.953 272.471 220.041C272.471 220.086 272.441 220.127 272.428 220.172C272.415 220.216 272.406 220.257 272.398 220.298C272.389 220.339 272.372 220.4 272.363 220.453C272.354 220.506 272.363 220.539 272.363 220.584C272.363 220.629 272.363 220.686 272.363 220.739C272.363 220.792 272.363 220.825 272.363 220.866C272.363 220.907 272.363 220.972 272.363 221.025C272.363 221.078 272.363 221.107 272.363 221.148C272.363 221.189 272.389 221.258 272.406 221.315C272.424 221.373 272.406 221.389 272.437 221.422C272.464 221.495 272.496 221.568 272.532 221.638L272.554 221.691C272.603 221.78 272.658 221.866 272.719 221.948L272.789 222.034C272.832 222.091 272.88 222.149 272.932 222.202L273.032 222.296C273.084 222.345 273.14 222.394 273.197 222.443L273.318 222.537L273.514 222.672L273.657 222.761L273.892 222.892L274.048 222.97L274.344 223.1L274.491 223.162C274.648 223.223 274.813 223.28 274.991 223.333C275.273 223.419 275.608 223.509 275.985 223.599L276.363 223.685L276.915 223.803L277.206 223.864C277.582 223.941 277.982 224.017 278.405 224.093L278.991 224.195L279.469 224.277L280.568 224.457C281.254 224.567 281.971 224.677 282.74 224.783L284.634 225.053L287.101 225.384L287.648 225.453L288.517 225.568L289.79 225.727L290.658 225.833L292.913 226.103L293.616 226.185L295.037 226.348C296.904 226.56 298.711 226.757 300.375 226.932L302.299 227.136L303.272 227.239L303.707 227.279L304.871 227.398L305.518 227.463L306.317 227.541L307.442 227.651H307.564L308.285 227.721C308.375 227.73 308.466 227.721 308.553 227.695C308.64 227.669 308.72 227.627 308.788 227.57C308.856 227.514 308.911 227.445 308.949 227.367C308.987 227.29 309.008 227.205 309.01 227.12C309.01 227.1 309.01 227.075 309.01 227.051C309.076 226.956 309.113 226.845 309.114 226.732C309.133 225.724 309.269 224.722 309.518 223.742C309.566 223.574 309.623 223.403 309.683 223.231L309.753 223.035C309.831 222.827 309.909 222.627 310 222.402C310.066 222.25 310.122 222.094 310.17 221.936C310.17 221.887 310.2 221.838 310.218 221.785C310.235 221.732 310.261 221.618 310.278 221.532C311.182 218.627 310.092 213.211 309.779 211.082C309.679 210.403 309.513 209.733 309.284 209.081C309.34 209.086 309.397 209.086 309.453 209.081C309.92 208.92 310.359 208.695 310.756 208.415C317.393 206.189 322.988 203.644 324.756 201.095C327.619 200.384 330.66 200.683 333.304 201.936C336.74 203.542 362.732 211.52 374.833 215.204C377.005 216.965 378.708 217.994 379.651 217.917C379.651 217.917 395.057 220.261 401.251 215.686C401.803 216.046 402.151 216.238 402.151 216.238C402.151 216.238 411.151 212.034 412.501 206.564C412.936 204.792 413.331 202.177 413.735 199.285C415.823 197.307 416.997 194.634 417.001 191.846C417.284 182.663 421.067 172.173 423.873 162.843C427.278 163.096 428.595 162.492 431.718 161.042L431.579 160.874C431.8 160.752 431.996 160.67 432.191 160.58ZM380.593 174.334L378.856 173.791C379.438 173.059 379.941 172.273 380.354 171.446L380.593 174.334ZM370.911 178.199L381.336 184.081L381.427 185.278C381.3 186.189 381.329 187.113 381.514 188.015C376.918 184.175 371.541 179.514 370.907 178.194L370.911 178.199ZM366.654 169.62C365.516 169.179 364.574 168.779 363.927 168.448C364.795 168.505 365.621 168.554 366.342 168.591C366.484 168.923 366.589 169.268 366.654 169.62ZM338.734 179.208C338.734 179.208 340.532 175.425 344.584 181.732C345.214 182.712 346.374 184.273 347.907 186.205L336.11 184.722C337.5 182.696 338.434 180.813 338.734 179.212V179.208Z" fill="url(#paint3_linear)"/>
<path d="M364.648 164.011C364.648 164.011 356.395 160.743 349.879 158.292C343.364 155.842 347.273 164.011 347.273 164.011C347.273 164.011 358.132 166.871 358.132 167.279C358.132 167.688 367.254 168.096 367.254 168.096L364.648 164.011Z" fill="#F7C4A7"/>
<path opacity="0.05" d="M364.648 164.011C364.648 164.011 356.395 160.743 349.879 158.292C343.364 155.842 347.273 164.011 347.273 164.011C347.273 164.011 358.132 166.871 358.132 167.279C358.132 167.688 367.254 168.096 367.254 168.096L364.648 164.011Z" fill="black"/>
<path d="M399.831 131.74C399.831 131.74 385.063 124.387 382.457 138.685C379.85 152.982 371.597 162.786 371.597 162.786C371.597 162.786 363.779 164.42 360.738 161.56C360.738 161.56 368.123 169.73 364.648 170.547C364.648 170.547 372.466 175.858 375.941 174.224C379.416 172.59 382.022 161.56 383.325 158.701C384.628 155.842 389.406 130.923 399.831 131.74Z" fill="#575988"/>
<path opacity="0.1" d="M399.831 131.74C399.831 131.74 385.063 124.387 382.457 138.685C379.85 152.982 371.597 162.786 371.597 162.786C371.597 162.786 363.779 164.42 360.738 161.56C360.738 161.56 368.123 169.73 364.648 170.547C364.648 170.547 372.466 175.858 375.941 174.224C379.416 172.59 382.022 161.56 383.325 158.701C384.628 155.842 389.406 130.923 399.831 131.74Z" fill="black"/>
<path d="M391.578 126.838C391.578 126.838 400.7 136.642 401.134 144.812C401.568 152.982 411.559 136.234 412.428 135.825C413.296 135.417 403.74 121.528 402.872 117.034C402.003 112.541 391.578 126.838 391.578 126.838Z" fill="#F7C4A7"/>
<path d="M397.876 131.025L392.121 135.927L394.836 146.242L402.22 139.706L401.351 133.17L397.876 131.025Z" fill="#F7C4A7"/>
<path d="M277.775 203.636H267.785L271.694 212.623L281.25 210.172L277.775 203.636Z" fill="#F7C4A7"/>
<path opacity="0.1" d="M270.096 202.341C270.096 202.341 259.749 209.118 250.91 207.01C242.071 204.902 239.669 205.69 238.639 208.411C237.688 210.915 263.328 224.158 267.416 226.25C267.479 226.283 267.55 226.301 267.622 226.304C267.694 226.307 267.766 226.294 267.832 226.266C267.898 226.238 267.956 226.197 268.002 226.144C268.048 226.092 268.081 226.03 268.098 225.964C268.376 224.853 269.049 222.471 269.77 222.288C270.708 222.051 274.982 214.526 274.748 211.569C274.513 208.611 270.096 202.341 270.096 202.341Z" fill="black"/>
<path d="M269.661 202.341C269.661 202.341 259.315 209.118 250.475 207.01C241.636 204.902 239.234 205.69 238.205 208.411C237.253 210.915 262.894 224.158 266.981 226.25C267.045 226.283 267.115 226.301 267.187 226.304C267.26 226.307 267.331 226.294 267.397 226.266C267.464 226.238 267.522 226.197 267.568 226.144C267.614 226.092 267.647 226.03 267.663 225.964C267.941 224.853 268.614 222.471 269.335 222.288C270.274 222.051 274.548 214.526 274.313 211.569C274.079 208.611 269.661 202.341 269.661 202.341Z" fill="#F3B5B7"/>
<path d="M355.092 186.07L325.989 182.394C325.989 182.394 278.644 203.636 272.997 204.044L274.3 213.44H282.987C286.462 213.44 320.343 206.495 325.121 199.551C327.885 198.86 330.823 199.15 333.374 200.368C337.717 202.41 379.416 215.074 379.416 215.074L355.092 186.07Z" fill="#575988"/>
<path opacity="0.1" d="M355.092 186.07L325.989 182.394C325.989 182.394 278.644 203.636 272.997 204.044L274.3 213.44H282.987C286.462 213.44 320.343 206.495 325.121 199.551C327.885 198.86 330.823 199.15 333.374 200.368C337.717 202.41 379.416 215.074 379.416 215.074L355.092 186.07Z" fill="black"/>
<path d="M303.403 198.734L298.625 204.453L303.403 206.904L310.352 202.002L303.403 198.734Z" fill="#F7C4A7"/>
<path d="M386.366 192.198C386.366 192.198 370.729 179.608 369.647 177.324C368.566 175.041 342.93 159.518 341.192 159.109C339.455 158.701 333.808 155.842 328.161 165.645C322.514 175.449 301.665 199.142 301.665 199.142C301.665 199.142 308.18 207.721 310.352 207.312C312.524 206.904 336.848 187.704 338.586 178.309C338.586 178.309 340.323 174.632 344.233 180.76C348.142 186.887 373.335 216.299 378.113 215.891C378.113 215.891 396.791 218.75 400.7 211.806C404.609 204.861 386.366 192.198 386.366 192.198Z" fill="#575988"/>
<path d="M395.27 132.353C395.27 132.353 389.841 134.6 389.406 143.995C388.972 153.391 379.416 169.322 379.416 169.322L380.285 188.113C380.285 188.113 390.709 197.917 391.578 204.044C392.447 210.172 399.831 214.257 399.831 214.257C399.831 214.257 408.518 210.172 409.821 204.861C411.125 199.551 411.993 186.479 414.165 181.577C416.337 176.675 415.034 146.038 415.034 146.038L408.518 135.417L405.043 131.74L395.922 141.544C395.922 141.544 390.927 135.212 395.27 132.353Z" fill="#DDDBE2"/>
<path opacity="0.1" d="M382.457 181.985C382.457 181.985 381.153 167.279 385.063 164.011L392.881 143.178C392.881 143.178 395.705 133.17 395.27 132.353C394.836 131.536 385.063 140.319 385.063 140.319L378.547 161.969L380.285 184.845L382.457 181.985Z" fill="black"/>
<path d="M382.022 181.985C382.022 181.985 380.719 167.279 384.628 164.011L392.447 143.178C392.447 143.178 395.487 132.966 395.053 132.149C394.619 131.332 384.628 140.319 384.628 140.319L378.113 161.969L379.85 184.845L382.022 181.985Z" fill="#575988"/>
<path d="M385.063 175.449C385.063 175.449 363.345 168.913 362.041 167.279C360.738 165.645 346.839 155.025 342.061 162.377C337.283 169.73 359.87 171.773 359.87 171.773L382.891 184.845L385.063 175.449Z" fill="#F7C4A7"/>
<path opacity="0.1" d="M304.345 204.416L297.917 203.329C297.917 203.329 287.388 216.013 281.902 214.726C276.416 213.44 271.368 218.991 277.163 220.772C282.397 222.382 305.001 224.632 309.306 225.049C309.393 225.058 309.481 225.049 309.564 225.024C309.648 224.999 309.725 224.958 309.79 224.903C309.856 224.849 309.909 224.782 309.946 224.707C309.983 224.632 310.003 224.551 310.005 224.469C310.038 222.89 310.376 221.33 311.004 219.865C312.164 217.19 311.004 211.442 310.682 209.244C310.505 207.956 310.077 206.71 309.418 205.568L304.345 204.416Z" fill="black"/>
<path d="M304.237 204.812L297.808 203.725C297.808 203.725 287.279 216.409 281.802 215.127C276.324 213.844 271.268 219.391 277.063 221.172C282.297 222.782 304.901 225.033 309.206 225.449C309.293 225.458 309.381 225.449 309.464 225.424C309.548 225.399 309.625 225.358 309.69 225.303C309.756 225.249 309.809 225.182 309.846 225.107C309.883 225.033 309.903 224.952 309.905 224.869C309.926 223.294 310.251 221.735 310.865 220.27C312.025 217.594 310.865 211.846 310.543 209.649C310.366 208.36 309.938 207.114 309.279 205.972L304.237 204.812Z" fill="#F3B5B7"/>
<path opacity="0.1" d="M394.836 131.536C402.512 131.536 408.736 125.683 408.736 118.464C408.736 111.245 402.512 105.392 394.836 105.392C387.159 105.392 380.936 111.245 380.936 118.464C380.936 125.683 387.159 131.536 394.836 131.536Z" fill="black"/>
<path d="M393.533 131.536C401.209 131.536 407.432 125.683 407.432 118.464C407.432 111.245 401.209 105.392 393.533 105.392C385.856 105.392 379.633 111.245 379.633 118.464C379.633 125.683 385.856 131.536 393.533 131.536Z" fill="#F7C4A7"/>
<path d="M407.215 131.332C407.215 131.332 423.721 136.642 423.721 147.672C423.721 158.701 414.599 176.266 414.165 190.564C413.731 204.861 389.841 202.819 389.841 202.819C389.841 202.819 386.366 154.616 389.841 150.94C393.316 147.263 408.953 132.966 407.215 131.332Z" fill="#575988"/>
<path opacity="0.1" d="M404.175 154.208C404.175 154.208 398.094 179.534 383.76 175.041C383.76 175.041 376.375 185.253 381.588 189.747C381.588 189.747 394.184 192.606 402.437 184.845C410.69 177.083 416.771 174.224 418.074 164.828C419.377 155.433 420.246 142.361 415.903 143.587C411.559 144.812 404.175 154.208 404.175 154.208Z" fill="black"/>
<path d="M404.609 153.799C404.609 153.799 398.528 179.126 384.194 174.632C384.194 174.632 376.81 184.845 382.022 189.338C382.022 189.338 394.619 192.198 402.872 184.436C411.124 176.675 417.206 173.815 418.509 164.42C419.812 155.025 420.68 141.953 416.337 143.178C411.993 144.404 404.609 153.799 404.609 153.799Z" fill="#575988"/>
<path d="M311.238 218.954C311.238 218.991 311.212 219.036 311.199 219.069C310.9 219.767 310.672 220.491 310.517 221.23C310.622 220.911 310.743 220.584 310.882 220.257C311.053 219.837 311.173 219.4 311.238 218.954Z" fill="#DDDBE2"/>
<path d="M277.38 219.98C275.59 219.428 274.839 218.521 274.808 217.565C274.07 218.897 274.535 220.392 277.063 221.168C282.297 222.778 304.905 225.029 309.206 225.445C309.293 225.454 309.382 225.445 309.465 225.42C309.549 225.394 309.626 225.353 309.692 225.298C309.758 225.243 309.811 225.176 309.847 225.101C309.884 225.025 309.904 224.944 309.905 224.861C309.908 224.711 309.851 224.566 309.746 224.453C309.641 224.34 309.494 224.269 309.336 224.252C304.619 223.779 282.544 221.565 277.38 219.98Z" fill="#DDDBE2"/>
<path d="M238.804 207.692C238.919 207.391 239.065 207.101 239.238 206.826C238.77 207.271 238.421 207.814 238.218 208.411C237.266 210.915 262.907 224.159 266.994 226.25C267.058 226.283 267.129 226.301 267.201 226.303C267.274 226.306 267.346 226.293 267.412 226.265C267.478 226.236 267.536 226.194 267.582 226.141C267.628 226.089 267.66 226.027 267.676 225.96C267.7 225.866 267.691 225.767 267.649 225.678C267.608 225.59 267.536 225.516 267.446 225.47C262.929 223.145 237.866 210.167 238.804 207.692Z" fill="#DDDBE2"/>
<path d="M269.931 221.573C269.7 221.63 269.475 221.92 269.262 222.316L269.331 222.292C269.522 222.243 269.848 221.883 270.243 221.352C270.159 221.448 270.052 221.523 269.931 221.573Z" fill="#DDDBE2"/>
<path opacity="0.1" d="M391.604 129.971C390.379 132.512 390.123 135.376 389.224 138.039C387.439 143.321 382.96 147.692 377.596 149.379C382.109 151.07 387.434 149.003 390.922 145.572C394.41 142.141 396.456 137.574 398.415 133.129C403.48 136.332 402.863 143.693 404.566 149.424C405.296 151.918 406.588 154.234 408.352 156.218C410.117 158.202 412.314 159.807 414.795 160.923C417.267 161.966 419.955 162.481 422.664 162.429C425.373 162.378 428.037 161.762 430.462 160.625C425.819 155.315 419.208 147.99 419.994 140.899C420.633 135.155 416.25 130.768 416.55 125.004C416.984 116.834 413.657 112.684 407.428 107.439C403.788 104.371 409.517 100.045 404.822 101.311C402.976 101.81 401.03 99.951 399.219 100.564C395.631 101.789 391.713 101.315 388.021 102.132C368.831 106.373 393.394 126.262 391.604 129.971Z" fill="black"/>
<path d="M392.039 129.563C390.814 132.104 390.557 134.967 389.658 137.631C387.873 142.913 383.395 147.284 378.03 148.971C382.543 150.662 387.869 148.595 391.357 145.163C394.845 141.732 396.89 137.165 398.849 132.721C403.914 135.923 403.297 143.284 405 149.016C405.731 151.509 407.022 153.826 408.787 155.81C410.552 157.794 412.748 159.398 415.229 160.515C417.702 161.558 420.389 162.072 423.099 162.021C425.808 161.969 428.471 161.353 430.897 160.217C426.253 154.906 420.077 148.807 420.863 141.716C421.501 135.972 420.55 130.069 420.863 124.31C421.297 116.14 417.036 108.248 410.803 103.002C407.163 99.9346 401.477 99.5425 399.662 100.143C396.074 101.368 392.156 100.895 388.464 101.712C369.265 105.964 393.828 125.854 392.039 129.563Z" fill="#FC6681"/>
</g>
<defs>
<linearGradient id="paint0_linear" x1="257.599" y1="188.734" x2="257.599" y2="39.326" gradientUnits="userSpaceOnUse">
<stop stop-color="#808080" stop-opacity="0.25"/>
<stop offset="0.54" stop-color="#808080" stop-opacity="0.12"/>
<stop offset="1" stop-color="#808080" stop-opacity="0.1"/>
</linearGradient>
<linearGradient id="paint1_linear" x1="51990.7" y1="86780.8" x2="51990.7" y2="41216" gradientUnits="userSpaceOnUse">
<stop stop-color="#808080" stop-opacity="0.25"/>
<stop offset="0.54" stop-color="#808080" stop-opacity="0.12"/>
<stop offset="1" stop-color="#808080" stop-opacity="0.1"/>
</linearGradient>
<linearGradient id="paint2_linear" x1="20772.5" y1="70755.4" x2="20772.5" y2="42928.2" gradientUnits="userSpaceOnUse">
<stop stop-color="#808080" stop-opacity="0.25"/>
<stop offset="0.54" stop-color="#808080" stop-opacity="0.12"/>
<stop offset="1" stop-color="#808080" stop-opacity="0.1"/>
</linearGradient>
<linearGradient id="paint3_linear" x1="168036" y1="91525.2" x2="168036" y2="50186.7" gradientUnits="userSpaceOnUse">
<stop stop-color="#808080" stop-opacity="0.25"/>
<stop offset="0.54" stop-color="#808080" stop-opacity="0.12"/>
<stop offset="1" stop-color="#808080" stop-opacity="0.1"/>
</linearGradient>
<clipPath id="clip0">
<rect width="450" height="250" fill="white"/>
</clipPath>
</defs>
</svg>
