<svg width="300" height="250" viewBox="0 0 300 250" fill="none" xmlns="http://www.w3.org/2000/svg">
<g clip-path="url(#clip0)">
<g opacity="0.7">
<path opacity="0.7" d="M117.529 134.088L117.324 134.034V125.454C125.24 123.314 132.409 118.682 137.945 112.13C143.48 105.579 147.14 97.3948 148.472 88.5907H148.572C150.574 88.5907 152.194 85.2609 152.194 81.1565C152.194 78.6089 151.57 76.365 150.619 75.0247C150.763 73.4554 150.835 71.8645 150.838 70.2521C150.844 63.8313 149.66 57.4757 147.357 51.5702C145.055 45.6647 141.681 40.332 137.441 35.8949C136.858 32.7223 135.82 29.671 134.364 26.8548C131.276 20.9014 126.139 14.705 128.234 8.25047L114.67 9.76919L114.545 -0.0113525C110.313 0.820146 108.541 6.18881 106.029 10.0122C99.9895 19.208 87.8689 20.4875 79.8521 27.6483C77.129 30.082 71.0028 37.482 72.1545 42.3343C66.7668 50.4472 63.871 60.2226 63.8845 70.2521C63.8845 71.862 63.9573 73.4528 64.103 75.0247C63.1525 76.365 62.5281 78.6089 62.5281 81.1565C62.5281 85.2647 64.1516 88.5907 66.1497 88.5907H66.2503C67.5817 97.3948 71.2417 105.579 76.7776 112.13C82.3135 118.682 89.4826 123.314 97.3982 125.454V134.034L97.1935 134.088C92.5243 133.492 45.4018 129.554 55.7359 214.375L62.0737 239.95L63.4855 239.889C63.6704 242.455 64.6786 244.867 66.3317 246.697C67.9849 248.528 70.1764 249.66 72.5185 249.892C74.8605 250.124 77.2022 249.442 79.129 247.967C81.0559 246.491 82.4438 244.317 83.0471 241.829C92.0213 241.795 102.158 241.765 107.33 241.765C112.502 241.765 122.656 241.799 131.613 241.829C132.206 244.33 133.592 246.519 135.522 248.006C137.453 249.493 139.803 250.181 142.154 249.948C144.505 249.715 146.704 248.576 148.359 246.734C150.014 244.891 151.018 242.466 151.192 239.889L152.603 239.95L158.941 214.375C169.324 129.554 122.198 133.492 117.529 134.088Z" fill="url(#paint0_linear)"/>
</g>
<path d="M223.96 237.36H0V245.668H223.96V237.36Z" fill="#E0E0E0"/>
<path d="M214.469 245.672H9.49109V249.07H214.469V245.672Z" fill="#E0E0E0"/>
<path opacity="0.1" d="M214.469 245.672H9.49109V246.803H214.469V245.672Z" fill="black"/>
<path opacity="0.1" d="M67.09 237.995C67.09 237.995 97.1417 237.865 107.361 237.865C117.581 237.865 147.633 237.995 147.633 237.995V233.207H67.09V237.995Z" fill="black"/>
<path d="M147.636 237.034C147.636 237.034 117.584 236.905 107.365 236.905C97.1451 236.905 67.0934 237.034 67.0934 237.034V176.536C67.0934 164.846 71.3358 153.636 78.8873 145.37C86.4389 137.104 96.6812 132.46 107.361 132.459C112.65 132.458 117.887 133.598 122.773 135.813C127.66 138.028 132.1 141.274 135.84 145.367C139.579 149.46 142.546 154.319 144.57 159.667C146.594 165.015 147.636 170.747 147.636 176.536V237.034Z" fill="#6C63FF"/>
<path d="M103.549 110.422H111.18C112.722 110.422 114.201 111.093 115.292 112.286C116.382 113.479 116.994 115.098 116.994 116.786V134.376C116.994 137.172 115.98 139.852 114.174 141.829C112.368 143.806 109.919 144.916 107.365 144.916C104.811 144.916 102.361 143.806 100.555 141.829C98.7493 139.852 97.7347 137.172 97.7347 134.376V116.786C97.7347 115.098 98.3473 113.479 99.4376 112.286C100.528 111.093 102.007 110.422 103.549 110.422Z" fill="#FDB797"/>
<path opacity="0.1" d="M97.7313 126.392C104.057 128.095 110.666 128.095 116.991 126.392V111.379H97.7313V126.392Z" fill="black"/>
<path d="M107.365 118.088C130.573 118.088 149.388 97.4955 149.388 72.0935C149.388 46.6915 130.573 26.0991 107.365 26.0991C84.1558 26.0991 65.3414 46.6915 65.3414 72.0935C65.3414 97.4955 84.1558 118.088 107.365 118.088Z" fill="#333333"/>
<path d="M107.365 126.711C129.606 126.711 147.636 106.977 147.636 82.6335C147.636 58.2905 129.606 38.5565 107.365 38.5565C85.1234 38.5565 67.0934 58.2905 67.0934 82.6335C67.0934 106.977 85.1234 126.711 107.365 126.711Z" fill="#FDB797"/>
<path d="M80.7715 30.9098C88.5177 23.9882 100.236 22.7542 106.074 13.8621C108.502 10.1679 110.213 4.97765 114.306 4.17273L114.427 13.6267L127.537 12.1536C125.514 18.3879 130.478 24.3907 133.462 30.1428C135.662 34.3973 136.864 39.182 136.962 44.0695C132.411 47.0613 126.767 43.7961 121.698 42.0534C116.772 40.36 111.538 40.1853 106.376 40.0259C103.729 39.9423 101.051 39.8664 98.4667 40.5005C96.2015 41.0586 94.0819 42.1483 91.9381 43.1316C88.4518 44.7301 77.4413 50.7594 74.2013 46.8715C70.5311 42.4634 77.7812 33.5827 80.7715 30.9098Z" fill="#333333"/>
<path opacity="0.1" d="M82.9604 60.5285C85.0973 61.9447 87.6089 62.5028 90.0822 62.8749C100.398 64.4171 110.902 63.1253 120.647 59.1161C122.243 63.5431 126.139 66.5843 130.281 68.0309C134.423 69.4775 138.846 69.5496 143.192 69.6066C144.15 69.6066 145.176 69.6066 145.967 69.0257C147.903 67.5943 146.966 64.3177 145.839 62.0776L140.23 50.9605C138.571 47.6725 136.865 44.3161 134.298 41.8254C131.079 38.7083 126.805 37.2465 122.59 36.3239C112.628 34.1546 102.343 34.5301 92.5348 37.4212C82.0516 40.508 68.585 51.0061 82.9604 60.5285Z" fill="black"/>
<path d="M82.9604 59.5717C85.0973 60.9879 87.6089 61.5461 90.0822 61.9181C100.398 63.4603 110.902 62.1686 120.647 58.1593C122.243 62.5864 126.139 65.6276 130.281 67.0742C134.423 68.5208 138.846 68.5929 143.192 68.6499C144.15 68.6499 145.176 68.6499 145.967 68.069C147.903 66.6376 146.966 63.3609 145.839 61.1208L140.23 49.9886C138.571 46.7006 136.865 43.3442 134.298 40.8535C131.079 37.7364 126.805 36.2746 122.59 35.352C112.628 33.1826 102.343 33.5581 92.5348 36.4492C82.0516 39.5474 68.585 50.0456 82.9604 59.5717Z" fill="#333333"/>
<path d="M147.199 89.8207C149.134 89.8207 150.703 86.6028 150.703 82.6334C150.703 78.6639 149.134 75.446 147.199 75.446C145.264 75.446 143.695 78.6639 143.695 82.6334C143.695 86.6028 145.264 89.8207 147.199 89.8207Z" fill="#FDB797"/>
<path d="M67.5304 89.8207C69.4654 89.8207 71.034 86.6028 71.034 82.6334C71.034 78.6639 69.4654 75.446 67.5304 75.446C65.5954 75.446 64.0267 78.6639 64.0267 82.6334C64.0267 86.6028 65.5954 89.8207 67.5304 89.8207Z" fill="#FDB797"/>
<path d="M116.831 133.833C116.831 133.833 167.77 125.15 157.266 211.39L151.14 236.111L133.628 235.352C133.628 235.352 145.01 206.607 138.006 187.44C131.002 168.274 116.831 133.833 116.831 133.833Z" fill="#6C63FF"/>
<path d="M97.8943 133.833C97.8943 133.833 46.9698 125.15 57.46 211.39L63.5862 236.111L81.0976 235.352C81.0976 235.352 69.7159 206.607 76.7197 187.44C83.7236 168.274 97.8943 133.833 97.8943 133.833Z" fill="#6C63FF"/>
<path opacity="0.1" d="M75.8455 171.835C75.8455 171.835 72.3418 201.45 78.4715 210.073L75.8455 171.835Z" fill="black"/>
<path opacity="0.1" d="M138.88 172.595C138.88 172.595 142.384 201.45 136.254 210.073L138.88 172.595Z" fill="black"/>
<path d="M140.174 245.82C145.492 245.82 149.804 241.101 149.804 235.28C149.804 229.459 145.492 224.74 140.174 224.74C134.856 224.74 130.544 229.459 130.544 235.28C130.544 241.101 134.856 245.82 140.174 245.82Z" fill="#FDB797"/>
<path d="M74.5517 245.82C79.8702 245.82 84.1816 241.101 84.1816 235.28C84.1816 229.459 79.8702 224.74 74.5517 224.74C69.2333 224.74 64.9219 229.459 64.9219 235.28C64.9219 241.101 69.2333 245.82 74.5517 245.82Z" fill="#FDB797"/>
<g opacity="0.7">
<path opacity="0.7" d="M131.637 175.032H83.0402C78.9518 175.032 75.6375 178.66 75.6375 183.135V228.438C75.6375 232.913 78.9518 236.54 83.0402 236.54H131.637C135.725 236.54 139.04 232.913 139.04 228.438V183.135C139.04 178.66 135.725 175.032 131.637 175.032Z" fill="url(#paint1_linear)"/>
</g>
<path d="M130.461 176.171H84.2127C80.1243 176.171 76.8099 179.799 76.8099 184.274V227.299C76.8099 231.774 80.1243 235.401 84.2127 235.401H130.461C134.549 235.401 137.864 231.774 137.864 227.299V184.274C137.864 179.799 134.549 176.171 130.461 176.171Z" fill="#E0E0E0"/>
<path d="M95.6916 231.198V226.752C95.6932 226.688 95.682 226.625 95.6589 226.566C95.6357 226.507 95.6011 226.455 95.5576 226.412C95.514 226.369 95.4624 226.338 95.4065 226.319C95.3506 226.3 95.2916 226.295 95.2337 226.304C94.6561 226.316 94.0865 226.454 93.5582 226.71V231.187H92.4135V222.955H93.5547V225.674C94.1404 225.424 94.7613 225.286 95.3898 225.268C96.4305 225.268 96.8156 225.966 96.8156 226.923V231.194H95.6847L95.6916 231.198ZM98.9559 228.51C98.9941 229.998 99.2612 230.291 100.097 230.291C100.774 230.256 101.441 230.095 102.068 229.812L102.258 230.75C101.562 231.123 100.8 231.325 100.024 231.343C98.1199 231.343 97.825 230.203 97.825 228.373C97.8028 227.451 97.8986 226.529 98.1095 225.636C98.847 225.361 99.6236 225.232 100.402 225.256C101.964 225.256 102.439 226.205 102.439 227.861V228.495H98.9698L98.9559 228.51ZM100.402 226.312C99.9566 226.303 99.5109 226.338 99.0704 226.414C98.9938 226.819 98.952 227.231 98.9455 227.644H101.325C101.325 226.779 101.183 226.312 100.402 226.312ZM104.565 226.718V231.194H103.424V226.156C104.245 225.689 105.147 225.416 106.071 225.355V226.395C105.558 226.415 105.051 226.524 104.569 226.718H104.565ZM109.075 231.343C107.372 231.343 106.602 230.427 106.602 228.332C106.602 226.114 107.618 225.271 109.075 225.271C110.778 225.271 111.548 226.186 111.548 228.282C111.548 230.5 110.528 231.343 109.075 231.343ZM109.075 226.312C108.201 226.312 107.715 226.862 107.715 228.332C107.715 229.934 108.124 230.291 109.075 230.291C109.949 230.291 110.435 229.748 110.435 228.282C110.435 226.68 110.025 226.316 109.075 226.316V226.312ZM117.054 231.194H115.711C115.395 230.217 114.911 229.315 114.285 228.537H113.685V231.194H112.568V222.955H113.709V227.682H114.244C114.812 227.017 115.267 226.246 115.586 225.404H116.87C116.453 226.334 115.904 227.185 115.243 227.925C115.96 228.935 116.576 230.028 117.078 231.183L117.054 231.194ZM119.194 231.339C118.153 231.339 117.768 230.64 117.768 229.683V225.42H118.899V229.847C118.897 229.911 118.909 229.974 118.932 230.033C118.955 230.092 118.99 230.144 119.033 230.187C119.077 230.229 119.128 230.261 119.184 230.28C119.24 230.298 119.299 230.303 119.357 230.295C119.954 230.283 120.543 230.145 121.091 229.888V225.42H122.247V230.439C121.327 231.026 120.283 231.338 119.218 231.343L119.194 231.339ZM118.691 220.856H95.9449C95.4817 220.857 95.023 220.758 94.5948 220.565C94.1666 220.371 93.7774 220.088 93.4494 219.73C93.1215 219.372 92.8612 218.947 92.6834 218.479C92.5056 218.011 92.4139 217.509 92.4135 217.002V184.255C92.4135 183.748 92.5046 183.246 92.6817 182.778C92.8589 182.31 93.1185 181.885 93.4457 181.527C93.773 181.169 94.1616 180.885 94.5892 180.691C95.0168 180.497 95.4751 180.397 95.9379 180.397H118.705C119.169 180.395 119.629 180.493 120.058 180.686C120.488 180.879 120.878 181.163 121.207 181.521C121.536 181.88 121.797 182.306 121.976 182.775C122.154 183.244 122.246 183.747 122.247 184.255V217.002C122.247 217.509 122.155 218.011 121.978 218.479C121.801 218.947 121.541 219.373 121.213 219.731C120.885 220.089 120.496 220.373 120.068 220.567C119.64 220.761 119.182 220.86 118.719 220.86L118.691 220.856Z" fill="#6762A6"/>
<path d="M111.108 215.294V199.226C111.108 199.226 112.062 195.379 99.3444 200.797C99.3201 200.866 99.3201 185.937 99.3201 185.937L103.483 185.91V195.474C103.483 195.474 115.118 190.459 115.118 199.271V215.286H111.108V215.294ZM113.477 191.696H109.064C110.65 189.574 112.086 185.937 112.086 185.937H116.644C116.644 185.937 115.864 188.306 113.47 191.696H113.477ZM99.3964 215.263V206.113L103.576 210.688L99.3964 215.263Z" fill="white"/>
<g opacity="0.7">
<path opacity="0.7" d="M292.597 146.936H244C239.912 146.936 236.598 150.564 236.598 155.038V200.342C236.598 204.817 239.912 208.444 244 208.444H292.597C296.686 208.444 300 204.817 300 200.342V155.038C300 150.564 296.686 146.936 292.597 146.936Z" fill="url(#paint2_linear)"/>
</g>
<path d="M291.421 148.075H245.173C241.084 148.075 237.77 151.703 237.77 156.177V199.203C237.77 203.677 241.084 207.305 245.173 207.305H291.421C295.51 207.305 298.824 203.677 298.824 199.203V156.177C298.824 151.703 295.51 148.075 291.421 148.075Z" fill="#E0E0E0"/>
<path d="M257.398 173.217C257.385 173.764 257.447 174.309 257.581 174.835C257.729 175.285 257.906 175.723 258.112 176.145C258.187 176.269 258.228 176.414 258.23 176.562C258.22 176.674 258.186 176.782 258.131 176.877C258.077 176.972 258.002 177.051 257.915 177.109L256.874 177.868C256.747 177.968 256.596 178.025 256.44 178.032C256.251 178.018 256.072 177.927 255.941 177.777C255.717 177.514 255.517 177.228 255.344 176.923C255.177 176.616 254.997 176.27 254.831 175.849C254.245 176.647 253.5 177.288 252.654 177.722C251.807 178.157 250.881 178.375 249.946 178.358C248.559 178.358 247.438 177.922 246.623 177.048C245.785 176.047 245.344 174.723 245.397 173.366C245.45 172.01 245.992 170.732 246.904 169.812C247.917 168.866 249.263 168.392 250.973 168.392C251.563 168.396 252.152 168.445 252.735 168.536C253.349 168.627 253.981 168.771 254.647 168.935V167.606C254.647 166.224 254.38 165.259 253.866 164.697C253.353 164.135 252.437 163.862 251.157 163.862C250.553 163.862 249.951 163.941 249.363 164.097C248.753 164.257 248.154 164.464 247.57 164.716C247.381 164.809 247.186 164.887 246.987 164.952C246.901 164.982 246.811 165 246.72 165.005C246.488 165.005 246.373 164.823 246.373 164.443V163.551C246.355 163.33 246.396 163.108 246.491 162.913C246.617 162.748 246.776 162.618 246.956 162.533C247.618 162.173 248.317 161.897 249.037 161.713C249.884 161.475 250.755 161.359 251.629 161.368C253.606 161.368 255.053 161.857 255.982 162.841C256.912 163.824 257.37 165.312 257.37 167.313V173.217H257.398ZM250.654 175.981C251.236 175.975 251.814 175.864 252.364 175.655C252.974 175.424 253.518 175.022 253.943 174.489C254.211 174.154 254.404 173.755 254.508 173.324C254.622 172.805 254.678 172.274 254.674 171.74V170.981C254.17 170.847 253.659 170.745 253.145 170.674C252.627 170.601 252.106 170.564 251.584 170.563C250.47 170.563 249.655 170.799 249.107 171.292C248.691 171.623 248.385 172.092 248.234 172.63C248.083 173.167 248.095 173.744 248.269 174.273C248.443 174.802 248.769 175.255 249.199 175.564C249.628 175.873 250.138 176.021 250.65 175.985L250.654 175.981ZM263.996 177.944C263.772 177.97 263.548 177.905 263.364 177.762C263.191 177.565 263.071 177.319 263.017 177.052L259.115 163.004C259.039 162.768 258.989 162.524 258.966 162.275C258.957 162.215 258.962 162.153 258.979 162.095C258.995 162.037 259.024 161.984 259.063 161.94C259.101 161.896 259.149 161.862 259.201 161.841C259.253 161.82 259.309 161.813 259.365 161.819H260.991C261.221 161.789 261.453 161.854 261.64 162.002C261.813 162.199 261.933 162.445 261.987 162.712L264.762 174.751L267.354 162.712C267.388 162.444 267.498 162.196 267.669 162.002C267.869 161.868 268.101 161.804 268.335 161.819H269.664C269.899 161.792 270.135 161.857 270.33 162.002C270.504 162.194 270.615 162.443 270.646 162.712L273.272 174.896L276.147 162.712C276.204 162.446 276.324 162.201 276.494 162.002C276.688 161.867 276.915 161.804 277.143 161.819H278.687C278.743 161.81 278.801 161.816 278.855 161.836C278.909 161.856 278.959 161.889 278.999 161.933C279.039 161.977 279.07 162.031 279.088 162.091C279.106 162.15 279.111 162.213 279.103 162.275C279.099 162.373 279.087 162.471 279.068 162.567C279.042 162.723 279.002 162.875 278.95 163.023L274.947 177.071C274.898 177.34 274.777 177.587 274.6 177.781C274.413 177.913 274.192 177.977 273.969 177.963H272.54C272.305 177.991 272.069 177.926 271.874 177.781C271.7 177.581 271.589 177.326 271.558 177.052L268.984 165.324L266.424 177.033C266.385 177.304 266.276 177.558 266.108 177.762C265.911 177.904 265.677 177.968 265.442 177.944H263.996ZM285.344 178.434C284.482 178.436 283.622 178.326 282.784 178.108C282.119 177.96 281.477 177.714 280.872 177.379C280.659 177.268 280.48 177.091 280.359 176.87C280.294 176.71 280.26 176.536 280.258 176.361V175.435C280.258 175.055 280.39 174.873 280.64 174.873C280.741 174.873 280.842 174.891 280.938 174.926C281.039 174.964 281.188 175.036 281.354 175.108C281.941 175.391 282.554 175.605 283.182 175.746C283.833 175.89 284.496 175.963 285.16 175.962C286.005 176.017 286.847 175.81 287.588 175.363C287.859 175.184 288.081 174.93 288.233 174.626C288.384 174.323 288.46 173.981 288.452 173.635C288.458 173.401 288.421 173.168 288.345 172.95C288.268 172.732 288.152 172.532 288.004 172.363C287.518 171.911 286.944 171.588 286.325 171.418L283.901 170.598C282.686 170.18 281.791 169.561 281.243 168.741C280.709 167.987 280.418 167.06 280.414 166.106C280.4 165.402 280.554 164.705 280.862 164.086C281.158 163.501 281.567 162.992 282.059 162.594C282.578 162.164 283.166 161.844 283.793 161.649C284.469 161.436 285.171 161.332 285.874 161.341C286.247 161.338 286.619 161.362 286.988 161.413C287.37 161.466 287.72 161.542 288.067 161.614C288.414 161.686 288.715 161.797 289.014 161.907C289.255 161.989 289.487 162.098 289.708 162.233C289.904 162.341 290.075 162.497 290.207 162.689C290.315 162.866 290.367 163.076 290.356 163.289V164.143C290.356 164.523 290.224 164.724 289.975 164.724C289.754 164.697 289.539 164.623 289.343 164.508C288.339 164.021 287.25 163.779 286.152 163.798C285.387 163.748 284.624 163.924 283.942 164.306C283.689 164.471 283.482 164.709 283.344 164.995C283.206 165.28 283.143 165.602 283.162 165.924C283.157 166.165 283.199 166.405 283.286 166.628C283.372 166.85 283.5 167.05 283.661 167.215C284.201 167.683 284.823 168.023 285.489 168.213L287.848 169.033C289.045 169.451 289.909 170.032 290.422 170.78C290.929 171.512 291.198 172.409 291.185 173.327C291.194 174.059 291.045 174.782 290.752 175.438C290.456 176.06 290.042 176.606 289.538 177.037C288.989 177.504 288.362 177.85 287.692 178.055C286.922 178.313 286.121 178.441 285.316 178.434H285.344Z" fill="#252F3E"/>
<path d="M288.483 187.266C283.016 191.685 275.076 194.031 268.249 194.031C259.127 194.083 250.317 190.406 243.543 183.719C243.029 183.211 243.494 182.52 244.108 182.918C250.67 187.061 258.018 189.484 265.579 189.998C273.139 190.513 280.705 189.104 287.685 185.884C288.598 185.428 289.382 186.537 288.483 187.266Z" fill="#FF9900"/>
<path d="M290.759 184.437C290.065 183.454 286.142 183.962 284.362 184.202C283.831 184.274 283.748 183.765 284.23 183.381C287.352 180.982 292.486 181.673 293.086 182.474C293.687 183.275 292.92 188.929 289.996 191.586C289.548 192.004 289.115 191.788 289.302 191.241C289.978 189.453 291.456 185.398 290.759 184.437Z" fill="#FF9900"/>
<g opacity="0.7">
<path opacity="0.7" d="M254.785 43.6632H206.189C202.1 43.6632 198.786 47.2908 198.786 51.7656V97.0689C198.786 101.544 202.1 105.171 206.189 105.171H254.785C258.874 105.171 262.188 101.544 262.188 97.0689V51.7656C262.188 47.2908 258.874 43.6632 254.785 43.6632Z" fill="url(#paint3_linear)"/>
</g>
<path d="M253.609 44.8022H207.361C203.273 44.8022 199.958 48.4298 199.958 52.9046V95.9299C199.958 100.405 203.273 104.032 207.361 104.032H253.609C257.698 104.032 261.012 100.405 261.012 95.9299V52.9046C261.012 48.4298 257.698 44.8022 253.609 44.8022Z" fill="#E0E0E0"/>
<path d="M221.99 89.8436L213.782 74.2767L221.99 58.7098H238.402L246.609 74.2767L238.402 89.8436H221.99Z" fill="#CAC9C2"/>
<path d="M230.478 81.3881C229.213 81.3881 227.977 80.9775 226.925 80.2082C225.873 79.4388 225.053 78.3454 224.569 77.0661C224.084 75.7868 223.958 74.379 224.205 73.0209C224.451 71.6628 225.061 70.4153 225.955 69.4361C226.85 68.457 227.99 67.7902 229.231 67.52C230.471 67.2499 231.758 67.3885 232.926 67.9184C234.095 68.4484 235.094 69.3457 235.797 70.4971C236.5 71.6484 236.875 73.0021 236.875 74.3868C236.873 76.243 236.199 78.0227 235 79.3352C233.8 80.6478 232.174 81.3861 230.478 81.3881Z" fill="white"/>
<path d="M243.341 53.512C243.04 53.0078 242.635 52.5881 242.158 52.2867C241.682 51.9853 241.147 51.8106 240.597 51.7769H220.373C219.824 51.8106 219.289 51.9853 218.813 52.2867C218.336 52.5881 217.931 53.0078 217.629 53.512L211.732 64.7125C211.674 65.4142 211.802 66.1192 212.1 66.7438L216.1 74.2273L223.239 60.7259H245.808C246.395 60.7513 246.965 60.9479 247.459 61.2954L243.352 53.5082" fill="#5072AA"/>
<path d="M211.978 64.2266L211.718 64.7164C211.661 65.418 211.788 66.123 212.086 66.7476L216.086 74.2312L218.212 70.2065L211.968 64.2228" fill="#4D6796"/>
<path d="M220.894 57.5367C220.649 57.5367 220.411 57.4574 220.208 57.3089C220.004 57.1604 219.846 56.9493 219.753 56.7023C219.659 56.4553 219.635 56.1835 219.682 55.9213C219.73 55.6591 219.848 55.4183 220.02 55.2293C220.193 55.0402 220.413 54.9115 220.653 54.8593C220.892 54.8072 221.141 54.834 221.366 54.9363C221.592 55.0386 221.785 55.2118 221.92 55.4341C222.056 55.6564 222.129 55.9177 222.129 56.185C222.129 56.5435 221.998 56.8873 221.767 57.1408C221.535 57.3943 221.221 57.5367 220.894 57.5367ZM241.118 56.185C241.12 56.3493 241.092 56.5124 241.036 56.6649C240.98 56.8175 240.898 56.9565 240.793 57.0741C240.688 57.1917 240.563 57.2855 240.425 57.3502C240.287 57.4149 240.139 57.4493 239.989 57.4513C239.838 57.4533 239.689 57.4229 239.55 57.3619C239.411 57.3008 239.284 57.2103 239.176 57.0956C238.959 56.8638 238.835 56.5472 238.832 56.2154C238.832 56.2154 238.832 56.1926 238.832 56.185C238.832 55.8532 238.952 55.535 239.166 55.3004C239.381 55.0658 239.672 54.934 239.975 54.934C240.278 54.934 240.569 55.0658 240.783 55.3004C240.997 55.535 241.118 55.8532 241.118 56.185Z" fill="white"/>
<path d="M253.45 72.6821L247.445 61.2917C246.951 60.9442 246.381 60.7475 245.794 60.7222H237.659L244.701 74.3071L233.559 95.8539C233.275 96.352 232.881 96.7645 232.414 97.0537H240.601C241.15 97.0199 241.685 96.8453 242.162 96.5439C242.638 96.2425 243.044 95.8228 243.345 95.3186L253.457 76.1486C253.705 75.6112 253.834 75.0175 253.834 74.4153C253.834 73.8132 253.705 73.2195 253.457 72.6821" fill="#CC4232"/>
<path d="M247.719 61.8118L247.448 61.2993C246.954 60.9516 246.384 60.7549 245.797 60.7297H237.659L239.779 64.8151L247.719 61.808" fill="#B23F33"/>
<path d="M239.973 93.7429C239.729 93.7429 239.49 93.6636 239.287 93.5151C239.084 93.3666 238.926 93.1555 238.832 92.9085C238.739 92.6615 238.714 92.3897 238.762 92.1275C238.809 91.8653 238.927 91.6245 239.1 91.4354C239.272 91.2464 239.493 91.1177 239.732 91.0655C239.972 91.0134 240.22 91.0401 240.446 91.1424C240.671 91.2448 240.864 91.418 241 91.6403C241.136 91.8626 241.208 92.1239 241.208 92.3912C241.208 92.7497 241.078 93.0935 240.846 93.347C240.615 93.6005 240.301 93.7429 239.973 93.7429ZM249.579 75.7385C249.334 75.7385 249.096 75.6592 248.892 75.5107C248.689 75.3622 248.531 75.1511 248.438 74.9041C248.344 74.6571 248.32 74.3853 248.367 74.1231C248.415 73.8609 248.533 73.6201 248.705 73.4311C248.878 73.242 249.098 73.1133 249.338 73.0611C249.577 73.009 249.825 73.0357 250.051 73.138C250.277 73.2403 250.47 73.4136 250.605 73.6359C250.741 73.8582 250.814 74.1195 250.814 74.3868C250.814 74.7453 250.683 75.0891 250.452 75.3426C250.22 75.5961 249.906 75.7385 249.579 75.7385Z" fill="white"/>
<path d="M223.384 87.8883L212.093 66.7477C211.795 66.123 211.668 65.4181 211.725 64.7164L207.524 72.6897C207.276 73.2272 207.147 73.8209 207.147 74.4229C207.147 75.025 207.276 75.6187 207.524 76.1562L217.643 95.3186C217.945 95.8221 218.35 96.2411 218.827 96.5418C219.303 96.8425 219.838 97.0166 220.387 97.0499H232.421C232.888 96.7607 233.282 96.3482 233.566 95.8501L237.687 87.8769H223.384" fill="#ECB02A"/>
<path d="M231.724 97.0537H232.418C232.885 96.7646 233.278 96.3521 233.562 95.8539L237.683 87.8806H233.302L231.724 97.0461" fill="#C79732"/>
<path d="M220.894 93.7429C220.649 93.7429 220.411 93.6636 220.208 93.5151C220.004 93.3666 219.846 93.1555 219.753 92.9085C219.659 92.6615 219.635 92.3897 219.682 92.1275C219.73 91.8653 219.848 91.6245 220.02 91.4354C220.193 91.2464 220.413 91.1177 220.653 91.0655C220.892 91.0134 221.141 91.0401 221.366 91.1424C221.592 91.2448 221.785 91.418 221.921 91.6403C222.056 91.8626 222.129 92.1239 222.129 92.3912C222.129 92.7497 221.999 93.0935 221.767 93.347C221.535 93.6005 221.221 93.7429 220.894 93.7429ZM211.271 75.7385C211.026 75.7385 210.788 75.6592 210.585 75.5107C210.382 75.3622 210.223 75.1511 210.13 74.9041C210.036 74.6571 210.012 74.3853 210.059 74.1231C210.107 73.8609 210.225 73.6201 210.397 73.4311C210.57 73.242 210.79 73.1133 211.03 73.0611C211.269 73.009 211.518 73.0357 211.743 73.138C211.969 73.2403 212.162 73.4136 212.298 73.6359C212.433 73.8582 212.506 74.1195 212.506 74.3868C212.506 74.7453 212.376 75.0891 212.144 75.3426C211.912 75.5961 211.598 75.7385 211.271 75.7385Z" fill="white"/>
</g>
<defs>
<linearGradient id="paint0_linear" x1="107.361" y1="249.996" x2="107.361" y2="3.17729e-05" gradientUnits="userSpaceOnUse">
<stop stop-color="#808080" stop-opacity="0.25"/>
<stop offset="0.54" stop-color="#808080" stop-opacity="0.12"/>
<stop offset="1" stop-color="#808080" stop-opacity="0.1"/>
</linearGradient>
<linearGradient id="paint1_linear" x1="19693.6" y1="38494.6" x2="19693.6" y2="28530.3" gradientUnits="userSpaceOnUse">
<stop stop-color="#808080" stop-opacity="0.25"/>
<stop offset="0.54" stop-color="#808080" stop-opacity="0.12"/>
<stop offset="1" stop-color="#808080" stop-opacity="0.1"/>
</linearGradient>
<linearGradient id="paint2_linear" x1="49273.2" y1="33914.9" x2="49273.2" y2="23950.6" gradientUnits="userSpaceOnUse">
<stop stop-color="#808080" stop-opacity="0.25"/>
<stop offset="0.54" stop-color="#808080" stop-opacity="0.12"/>
<stop offset="1" stop-color="#808080" stop-opacity="0.1"/>
</linearGradient>
<linearGradient id="paint3_linear" x1="42324.6" y1="17081.4" x2="42324.6" y2="7117.09" gradientUnits="userSpaceOnUse">
<stop stop-color="#808080" stop-opacity="0.25"/>
<stop offset="0.54" stop-color="#808080" stop-opacity="0.12"/>
<stop offset="1" stop-color="#808080" stop-opacity="0.1"/>
</linearGradient>
<clipPath id="clip0">
<rect width="300" height="250" fill="white"/>
</clipPath>
</defs>
</svg>
