<svg width="613" height="613" viewBox="0 0 613 613" fill="none" xmlns="http://www.w3.org/2000/svg">
<path fill-rule="evenodd" clip-rule="evenodd" d="M266.854 81.2053C314.088 53.9704 365.419 15.3598 418.071 32.2308C471.088 49.2188 500.872 110.17 524.001 163.602C544.507 210.975 549.977 263.783 539.951 313.801C531.018 358.367 498.385 389.398 471.677 424.628C444.931 459.91 421.731 497.313 384.222 519.226C337.14 546.73 280.778 592.012 231.944 564.676C181.852 536.635 205.861 450.317 173.282 401.146C138.91 349.27 40.9381 340.347 42.0116 278.021C43.0775 216.131 132.815 209.981 177.244 171.09C209.763 142.625 229.708 102.624 266.854 81.2053Z" fill="url(#paint0_linear)"/>
<path fill-rule="evenodd" clip-rule="evenodd" d="M94.5643 3.99997C99.7447 3.994 103.113 8.93807 106.483 12.9923C110.092 17.3343 114.377 21.6489 113.974 27.3507C113.501 34.0297 110.493 41.5723 104.314 43.647C98.4557 45.6139 93.8914 38.8516 88.4213 35.9298C83.3286 33.2095 75.652 33.2942 74.2177 27.5711C72.774 21.811 78.8423 17.4649 82.6793 13.0197C86.1196 9.0342 89.3877 4.00594 94.5643 3.99997Z" fill="#FF4F44"/>
<path fill-rule="evenodd" clip-rule="evenodd" d="M96.8765 208.015C105.606 208.34 111.25 215.756 113.496 223.477C115.358 229.883 111.866 236.02 106.234 240.192C99.2087 245.396 90.2362 250.816 82.6392 246.335C74.1285 241.314 72.2464 230.834 75.5045 222.065C78.625 213.666 87.1844 207.655 96.8765 208.015Z" fill="#22A800"/>
<path fill-rule="evenodd" clip-rule="evenodd" d="M534.1 24.0107C540.456 23.8055 546.728 26.5468 550.57 31.645C554.31 36.6075 554.723 43.2102 553.097 49.2187C551.558 54.9024 547.629 59.54 542.337 62.0637C537.088 64.5675 531.067 64.657 525.772 62.251C520.304 59.766 515.782 55.2538 514.417 49.376C513.045 43.4653 515.191 37.4518 518.903 32.6671C522.672 27.8106 527.978 24.2083 534.1 24.0107Z" fill="#6C63FF"/>
<defs>
<linearGradient id="paint0_linear" x1="241.481" y1="64.7048" x2="370.891" y2="547.668" gradientUnits="userSpaceOnUse">
<stop stop-color="#F0544A"/>
<stop offset="1" stop-color="#3B2969"/>
</linearGradient>
</defs>
</svg>
